Coordinates
version=1
nRows=24
nColumns=24
inDegrees=yes

Units are S.I. units (second, meters, Newtons, ...)
Angles are in degrees.

endheader
time	pelvis_tilt	pelvis_list	pelvis_rotation	pelvis_tx	pelvis_ty	pelvis_tz	hip_flexion_r	hip_adduction_r	hip_rotation_r	knee_angle_r	ankle_angle_r	subtalar_angle_r	mtp_angle_r	hip_flexion_l	hip_adduction_l	hip_rotation_l	knee_angle_l	ankle_angle_l	subtalar_angle_l	mtp_angle_l	lumbar_extension	lumbar_bending	lumbar_rotation
      1.11683333	     -0.37184462	      4.05927280	     -0.68498920	      0.48699684	      1.02236243	      0.30478010	      9.19371265	      0.65773868	     -0.63133899	    -15.04962726	      6.84417914	     -8.43621181	      7.45761278	     14.76089322	      2.97342860	     -4.93120994	    -63.28213792	      3.55942530	     -9.65770847	      8.53062561	     -0.20653110	     -3.22215726	      6.46078687
      1.12100000	     -0.33299386	      4.10856464	     -1.03667470	      0.49157301	      1.02270691	      0.30544938	      8.80972831	      0.64661300	     -0.44417352	    -14.86099207	      6.93743792	     -8.26726428	      7.53434623	     15.20338793	      2.94699268	     -5.24492111	    -62.90789701	      3.72858834	     -9.63690133	      8.52188238	     -0.22996956	     -3.26831042	      6.65589367
      1.12516667	     -0.28991359	      4.15332245	     -1.37320551	      0.49611952	      1.02303012	      0.30606869	      8.41996242	      0.63378113	     -0.24828959	    -14.67078814	      7.05647679	     -8.09776220	      7.64367258	     15.63532501	      2.92541693	     -5.52548273	    -62.50495050	      3.88896781	     -9.61585241	      8.50653173	     -0.27190103	     -3.29570187	      6.96448687
      1.12933333	     -0.24561774	      4.18543023	     -1.71254595	      0.50065065	      1.02331781	      0.30670312	      8.03795839	      0.63173195	     -0.06203568	    -14.49731187	      7.14813863	     -7.94602089	      7.70975968	     16.05983530	      2.87427762	     -5.82828606	    -62.08183660	      4.01969913	     -9.66068793	      8.49515351	     -0.30482868	     -3.32609075	      7.10436276
      1.13350000	     -0.19211958	      4.22936893	     -2.03256243	      0.50517327	      1.02362056	      0.30729642	      7.63708163	      0.61098681	      0.13407408	    -14.30835429	      7.27418234	     -7.79770370	      7.82464501	     16.46260481	      2.84773193	     -6.09738965	    -61.61540673	      4.13144006	     -9.71494767	      8.47156002	     -0.36344237	     -3.36156544	      7.41460030
      1.13766667	     -0.17537837	      4.24943638	     -2.34558006	      0.50966429	      1.02380619	      0.30788427	      7.28616202	      0.61481192	      0.33097982	    -14.13901040	      7.36690478	     -7.64754972	      7.86779698	     16.90672834	      2.78229439	     -6.37168245	    -61.14826650	      4.23927512	     -9.79831948	      8.46153228	     -0.37993612	     -3.36967916	      7.48482899
      1.14183333	     -0.12561396	      4.29077236	     -2.66401292	      0.51415881	      1.02402859	      0.30846791	      6.90642497	      0.58943293	      0.52031382	    -13.98544135	      7.51611414	     -7.51776101	      7.98258726	     17.29649403	      2.74277665	     -6.64801475	    -60.63000500	      4.30451346	     -9.91836805	      8.43019101	     -0.42550358	     -3.41186183	      7.81704016
      1.14600000	     -0.10230100	      4.30507720	     -2.96540762	      0.51862008	      1.02417689	      0.30902500	      6.55194801	      0.59136561	      0.71743729	    -13.82402876	      7.61953265	     -7.37598704	      8.02414599	     17.71682096	      2.66869749	     -6.90855841	    -60.11067216	      4.38553153	    -10.02323032	      8.41726766	     -0.45707367	     -3.41813603	      7.87670199
      1.15016667	     -0.03219323	      4.33446019	     -3.27736054	      0.52308528	      1.02438120	      0.30958598	      6.15897214	      0.56970590	      0.90547635	    -13.68996910	      7.76084152	     -7.25555961	      8.08691244	     18.06316428	      2.60901266	     -7.18626289	    -59.53303573	      4.42265876	    -10.17653738	      8.39470517	     -0.52103584	     -3.44338871	      8.06327838
      1.15433333	     -0.00041720	      4.34888146	     -3.57007697	      0.52753535	      1.02450517	      0.31010689	      5.79763257	      0.56184981	      1.10234796	    -13.53594350	      7.89026291	     -7.12423561	      8.14264116	     18.45101851	      2.53834608	     -7.43085499	    -58.95025299	      4.46279014	    -10.32309916	      8.37249572	     -0.56783439	     -3.45218887	      8.22133915
      1.15850000	      0.02240679	      4.36577318	     -3.85490374	      0.53198351	      1.02458063	      0.31061093	      5.45574106	      0.54757987	      1.28783491	    -13.40636278	      8.04174606	     -7.00372439	      8.21425013	     18.83583936	      2.47015976	     -7.66833367	    -58.33360755	      4.48590162	    -10.48947879	      8.34108505	     -0.58630806	     -3.46185634	      8.42866660
      1.16266667	      0.05456357	      4.37821755	     -4.12892205	      0.53642420	      1.02465673	      0.31109842	      5.09810249	      0.53408674	      1.47603054	    -13.26759637	      8.18115158	     -6.87608166	      8.27020343	     19.20176389	      2.39733580	     -7.89530352	    -57.69347486	      4.51113580	    -10.63860449	      8.31356293	     -0.62566605	     -3.46855733	      8.56014865
      1.16683333	      0.08660503	      4.39317705	     -4.39215589	      0.54085646	      1.02471064	      0.31155520	      4.74079372	      0.51198344	      1.65156339	    -13.12931585	      8.34556856	     -6.73939281	      8.36081212	     19.55689039	      2.33812858	     -8.09553650	    -57.02212609	      4.51121867	    -10.81877298	      8.26449605	     -0.67253121	     -3.49050304	      8.78409542
      1.17100000	      0.11270314	      4.39735528	     -4.65956539	      0.54528126	      1.02473540	      0.31200740	      4.39621351	      0.49966831	      1.83476627	    -13.00486521	      8.49871375	     -6.61262021	      8.43940530	     19.90710838	      2.25774416	     -8.30777184	    -56.32861681	      4.51723923	    -10.96794162	      8.21776897	     -0.70698688	     -3.49136889	      8.91683899
      1.17516667	      0.14284528	      4.40300587	     -4.92474979	      0.54969799	      1.02475501	      0.31244402	      4.04985037	      0.48076832	      2.01603260	    -12.88408308	      8.65240738	     -6.48511821	      8.51165910	     20.23926961	      2.18254101	     -8.51112742	    -55.60077127	      4.51133015	    -11.11808642	      8.16992345	     -0.74993196	     -3.49360243	      9.04656729
      1.17933333	      0.17345678	      4.39850460	     -5.18614809	      0.55411600	      1.02474948	      0.31287456	      3.70423269	      0.47051426	      2.20013211	    -12.77016965	      8.79438644	     -6.35889274	      8.55613724	     20.55931639	      2.09326826	     -8.70973857	    -54.85352796	      4.51026312	    -11.23453104	      8.13719377	     -0.79073206	     -3.48008222	      9.12389441
      1.18350000	      0.19163330	      4.40141813	     -5.42746489	      0.55852837	      1.02470315	      0.31325144	      3.37100200	      0.44627294	      2.35389512	    -12.65442997	      8.97187599	     -6.22319593	      8.61829466	     20.88416089	      2.02568213	     -8.87715706	    -54.07569753	      4.48906775	    -11.37555723	      8.08718895	     -0.82259173	     -3.48344358	      9.28279816
      1.18766667	      0.20581641	      4.39980961	     -5.67526941	      0.56294131	      1.02463034	      0.31363564	      3.04883853	      0.42511155	      2.51772512	    -12.55371599	      9.14158764	     -6.08235583	      8.67842724	     21.19909190	      1.94737341	     -9.04882378	    -53.27215191	      4.47015715	    -11.48631440	      8.03470494	     -0.84903297	     -3.47647238	      9.40692715
      1.19183333	      0.19645412	      4.37868348	     -5.90809722	      0.56736074	      1.02450180	      0.31401664	      2.73804816	      0.42740014	      2.69027375	    -12.42878678	      9.28291883	     -5.95795994	      8.70025361	     21.53365581	      1.84186141	     -9.20947251	    -52.46488436	      4.46992038	    -11.53805258	      8.01492880	     -0.85356968	     -3.44897311	      9.43474991
      1.19600000	      0.22852567	      4.37359880	     -6.16059031	      0.57175032	      1.02441399	      0.31437470	      2.41401527	      0.40078463	      2.84972510	    -12.36216676	      9.45651557	     -5.83299996	      8.73261684	     21.80064417	      1.76326908	     -9.37596466	    -51.59974938	      4.42991032	    -11.62134286	      7.98210164	     -0.89963053	     -3.43411320	      9.54650135
      1.20016667	      0.23289158	      4.37257019	     -6.39263409	      0.57618596	      1.02428389	      0.31471305	      2.10255476	      0.36881339	      2.99331110	    -12.26412744	      9.62853089	     -5.68671636	      8.76187160	     22.08567887	      1.69174943	     -9.52086653	    -50.71329991	      4.39329477	    -11.67606897	      7.95107821	     -0.91680672	     -3.43032829	      9.64651754
      1.20433333	      0.26014733	      4.36137162	     -6.60349100	      0.58061280	      1.02415443	      0.31500259	      1.76797455	      0.33897990	      3.09119933	    -12.17567794	      9.83605874	     -5.50067479	      8.81006083	     22.33665834	      1.62619426	     -9.62908685	    -49.80519839	      4.36011811	    -11.73365324	      7.89723185	     -0.96063678	     -3.41777058	      9.81296491
      1.20850000	      0.24832678	      4.33947115	     -6.82734374	      0.58504544	      1.02395492	      0.31532309	      1.47641456	      0.32773044	      3.23670527	    -12.08785265	      9.98890911	     -5.37319663	      8.83291935	     22.61656682	      1.52863423	     -9.76331286	    -48.88224250	      4.32678388	    -11.71929512	      7.87162155	     -0.95775824	     -3.38652645	      9.84753789
      1.21266667	      0.25374071	      4.32578811	     -7.04321482	      0.58949207	      1.02377212	      0.31561797	      1.16608732	      0.30028616	      3.36214261	    -11.99993216	     10.16492772	     -5.23083049	      8.85617289	     22.86102914	      1.45046934	     -9.88056131	    -47.92151590	      4.28231491	    -11.70411081	      7.84537172	     -0.97499973	     -3.36886055	      9.91875673
